<svg style="position: absolute; width: 0; height: 0; overflow: hidden;" version="1.1" xmlns="http://www.w3.org/2000/svg" xmlns:xlink="http://www.w3.org/1999/xlink">
<defs>
<symbol id="icon-diaspora" viewBox="0 0 24 24">
<path d="M14.8 20.534a6122.867 6122.867 0 0 1-2.003-2.797c-.535-.748-.97-1.332-.993-1.332-.024 0-.866 1.131-1.991 2.677-1.073 1.472-1.96 2.677-1.97 2.677-.031 0-3.869-2.703-3.879-2.731-.004-.014.863-1.287 1.928-2.83 1.065-1.543 1.937-2.83 1.937-2.859 0-.048-.346-.17-3.053-1.072l-3.089-1.031c-.027-.011.132-.546.68-2.276.395-1.244.726-2.272.737-2.284.011-.012 1.47.454 3.242 1.037 1.773.584 3.238 1.06 3.256 1.06.018 0 .038-.027.045-.06.007-.033.023-1.542.034-3.353.012-1.811.032-3.309.043-3.327.017-.026.515-.033 2.343-.033 1.277 0 2.335.01 2.35.02.021.014.056 1.01.115 3.246.096 3.673.098 3.722.157 3.722.023 0 1.427-.47 3.121-1.045S20.9 6.907 20.91 6.919c.034.038 1.424 4.562 1.406 4.579-.009.01-1.423.494-3.141 1.076-2.365.801-3.127 1.07-3.134 1.104-.004.025.808 1.24 1.842 2.753 1.018 1.49 1.847 2.719 1.843 2.733-.01.03-3.82 2.836-3.851 2.836-.013 0-.496-.66-1.074-1.466z"/>
</symbol>
<symbol id="icon-friendica" viewBox="0 0 24 24">
<path d="M2 5.548v12.904c0 2.001 1.611 3.628 3.601 3.628H18.4c1.99 0 3.601-1.627 3.601-3.628V5.548c0-2.001-1.611-3.628-3.601-3.628H5.601C3.611 1.92 2 3.547 2 5.548zm16.399-2.825c1.555 0 2.798 1.252 2.798 2.825v12.904c0 1.573-1.243 2.825-2.798 2.825H8.8v-4.841H15.2l-.017-4.825-6.382.033v-4.08H15.2v-4.84z"/>
</symbol>
<symbol id="icon-gnu-social" viewBox="0 0 24 24">
<path d="M5.19 2A2.755 2.755 0 0 0 2.43 4.761v11.04c0 1.529 1.232 2.76 2.761 2.76h8.208C13.388 21.689 9.16 23 9.16 23s7.149-.023 8.16-4.439h1.49c1.53 0 2.761-1.231 2.761-2.76V4.76A2.755 2.755 0 0 0 18.811 2H5.19zm3.967 2.213a.234.234 0 0 1 .08 0 .138.138 0 0 1 .066.032c.293.261-.486.517-.424 1.804.028.565-.14 1.004.942 1.004.722 0 .424-.643 1.334-.643.54 0 .74.348.815.632.076-.284.275-.632.816-.632.91 0 .611.643 1.334.643 1.082 0 .913-.44.941-1.004.063-1.287-.717-1.543-.423-1.804.293-.262 1.553 1.27 1.584 1.867.033.623.049 1.606-.878 2.116 1.034 1.02 1.173 2.37 1.173 2.37l-1.788-.03s-.408-1.852-2.573-1.758c-2.165.094-2.448.471-2.448 2.762 0 2.29 1.004 3.077 2.542 3.137 2.416.094 2.196-1.255 2.196-1.255l-1.13.063-.627-1.694h3.86c0 1.85-.785 4.737-4.456 4.55-3.671-.189-4.487-3.076-4.518-5.021-.018-1.068.157-2.272 1.031-3.124-.918-.509-.888-1.492-.888-2.116 0-.772.998-1.831 1.439-1.899z"/>
</symbol>
<symbol id="icon-mastodon" viewBox="0 0 24 24">
<path d="M21.377 14.59c-.288 1.48-2.579 3.102-5.21 3.416-1.372.164-2.723.314-4.163.248-2.356-.108-4.215-.562-4.215-.562 0 .23.014.448.042.652.306 2.325 2.306 2.464 4.2 2.529 1.91.065 3.612-.471 3.612-.471l.079 1.728s-1.337.718-3.718.85c-1.314.072-2.944-.033-4.844-.536-4.119-1.09-4.824-5.481-4.935-9.936-.033-1.323-.013-2.57-.013-3.613 0-4.556 2.985-5.891 2.985-5.891C6.702 2.313 9.284 2.022 11.969 2h.066c2.685.022 5.269.313 6.774 1.004 0 0 2.984 1.335 2.984 5.89 0 0 .038 3.362-.416 5.695zm-3.104-5.342c0-1.127-.277-2.032-.864-2.686-.594-.663-1.373-1.002-2.34-1.002-1.118 0-1.965.43-2.525 1.29L12 7.761l-.544-.913c-.56-.86-1.407-1.29-2.525-1.29-.967 0-1.746.34-2.34 1.003-.577.663-.864 1.559-.864 2.686v5.516h2.186V9.41c0-1.128.474-1.701 1.424-1.701 1.05 0 1.577.68 1.577 2.023v2.93h2.172v-2.93c0-1.344.527-2.023 1.577-2.023.95 0 1.424.573 1.424 1.701v5.354h2.186V9.248z"/>
</symbol>
<symbol id="icon-peertube" viewBox="0 0 24 24">
<path d="M3 0v12.001l9-6zm9 6v12L21 12zm-9 6.001V24l9-5.998z"/>
</symbol>
<symbol id="icon-pixelfed" viewBox="0 0 24 24">
<path d="M12 22C6.477 22 2 17.523 2 12S6.477 2 12 2s10 4.477 10 10-4.477 10-10 10zm-.794-7.817h1.835c1.728 0 3.129-1.364 3.129-3.046 0-1.682-1.401-3.046-3.13-3.046h-2.647c-.997 0-1.805.787-1.805 1.757v6.84z"/>
</symbol>
</defs>
</svg>
