<svg style="position: absolute; width: 0; height: 0; overflow: hidden;" version="1.1" xmlns="http://www.w3.org/2000/svg" xmlns:xlink="http://www.w3.org/1999/xlink">
<defs>
<symbol id="icon-fedicons-diaspora" viewBox="0 0 24 24">
<path d="M14.443 19.446a5342.008 5342.008 0 0 1-1.747-2.44c-.467-.653-.847-1.163-.867-1.163-.02 0-.755.987-1.737 2.335a152.208 152.208 0 0 1-1.72 2.336c-.026 0-3.374-2.358-3.383-2.383-.004-.012.753-1.123 1.682-2.469.93-1.345 1.69-2.468 1.69-2.494 0-.042-.302-.147-2.663-.935-1.465-.488-2.678-.893-2.695-.9-.025-.01.115-.476.593-1.985.344-1.086.633-1.982.643-1.993.01-.01 1.282.396 2.828.905 1.547.509 2.825.925 2.84.925.017 0 .034-.024.04-.053.006-.029.02-1.345.03-2.925.01-1.58.027-2.887.038-2.903.014-.023.449-.029 2.044-.029 1.113 0 2.036.008 2.05.018.018.012.049.88.1 2.832.084 3.204.086 3.247.137 3.247.02 0 1.245-.41 2.723-.912 1.478-.501 2.695-.903 2.704-.893.03.033 1.242 3.98 1.227 3.995-.008.008-1.242.43-2.741.939-2.063.699-2.728.933-2.734.963-.004.022.705 1.082 1.607 2.402.888 1.3 1.611 2.372 1.607 2.384-.009.027-3.331 2.475-3.36 2.475-.01 0-.432-.576-.936-1.28z"/>
</symbol>
<symbol id="icon-fedicons-friendica" viewBox="0 0 24 24">
<path d="M3.071 6.24v11.52c0 1.787 1.439 3.24 3.216 3.24h11.426c1.777 0 3.216-1.453 3.216-3.24V6.24c0-1.787-1.439-3.24-3.216-3.24H6.287C4.51 3 3.07 4.453 3.07 6.24zM17.713 4c1.389 0 2.216.834 2.216 2.24v11.52c0 1.406-.827 2.24-2.216 2.24h-8.57v-4.04h5.714l-.015-4.308-5.699.03V8.04h5.714V4z"/>
</symbol>
<symbol id="icon-fedicons-gnu-social" viewBox="0 0 24 24">
<path d="M5.24 2.156a2.735 2.735 0 0 0-2.74 2.74v10.957a2.735 2.735 0 0 0 2.74 2.74h8.147C13.378 21.7 9.181 23 9.181 23s7.096-.023 8.1-4.406h1.479a2.734 2.734 0 0 0 2.74-2.74V4.896a2.735 2.735 0 0 0-2.74-2.741H5.24zm3.938 2.196a.232.232 0 0 1 .08 0 .137.137 0 0 1 .065.032c.291.26-.483.514-.42 1.79.027.561-.14.998.934.998.717 0 .42-.64 1.324-.64.537 0 .735.347.81.628.074-.281.272-.627.81-.627.903 0 .606.639 1.323.639 1.074 0 .907-.437.934-.997.063-1.277-.711-1.532-.42-1.791.291-.26 1.542 1.261 1.573 1.853.032.619.048 1.594-.872 2.1 1.027 1.012 1.165 2.354 1.165 2.354l-1.776-.032s-.405-1.837-2.554-1.744c-2.149.094-2.429.468-2.429 2.741 0 2.274.997 3.055 2.523 3.115 2.398.093 2.18-1.246 2.18-1.246l-1.121.062-.623-1.681h3.83c0 1.837-.778 4.702-4.422 4.515-3.644-.186-4.453-3.052-4.485-4.983-.017-1.06.156-2.255 1.024-3.1-.91-.505-.881-1.48-.881-2.1 0-.767.99-1.819 1.428-1.886z"/>
</symbol>
<symbol id="icon-fedicons-mastodon" viewBox="0 0 24 24">
<path d="M21.377 14.59c-.288 1.48-2.579 3.102-5.21 3.416-1.372.164-2.723.314-4.163.248-2.356-.108-4.215-.562-4.215-.562 0 .23.014.448.042.652.306 2.325 2.306 2.464 4.2 2.529 1.91.065 3.612-.471 3.612-.471l.079 1.728s-1.337.718-3.718.85c-1.314.072-2.944-.033-4.844-.536-4.119-1.09-4.824-5.481-4.935-9.936-.033-1.323-.013-2.57-.013-3.613 0-4.556 2.985-5.891 2.985-5.891C6.702 2.313 9.284 2.022 11.969 2h.066c2.685.022 5.269.313 6.774 1.004 0 0 2.984 1.335 2.984 5.89 0 0 .038 3.362-.416 5.695zm-3.104-5.342c0-1.127-.277-2.032-.864-2.686-.594-.663-1.373-1.002-2.34-1.002-1.118 0-1.965.43-2.525 1.29L12 7.761l-.544-.913c-.56-.86-1.407-1.29-2.525-1.29-.967 0-1.746.34-2.34 1.003-.577.663-.864 1.559-.864 2.686v5.516h2.186V9.41c0-1.128.474-1.701 1.424-1.701 1.05 0 1.577.68 1.577 2.023v2.93h2.172v-2.93c0-1.344.527-2.023 1.577-2.023.95 0 1.424.573 1.424 1.701v5.354h2.186V9.248z"/>
</symbol>
<symbol id="icon-fedicons-peertube" viewBox="0 0 24 24">
<path d="M3.938 1.25v10.751L12 6.626zM12 6.626v10.748l8.062-5.373zM3.938 12V22.75L12 17.376z"/>
</symbol>
<symbol id="icon-fedicons-pixelfed" viewBox="0 0 24 24">
<path d="M12 22C6.477 22 2 17.523 2 12S6.477 2 12 2s10 4.477 10 10-4.477 10-10 10zm-.794-7.817h1.835c1.728 0 3.129-1.364 3.129-3.046 0-1.682-1.401-3.046-3.13-3.046h-2.647c-.997 0-1.805.787-1.805 1.757v6.84z"/>
</symbol>
</defs>
</svg>
